# xmcd
# 
# Track frame offsets:
#     150
#     12633
#     27902
#     40747
#     55320
#     67497
#     80704
#     94580
#     105336
#     120410
#     133033
#     159141
#     191352
#     215677
#     238721
#     265999
#     286145
# 
# Disc length: 3996
# 
# Revision: 2
# Processed by: cddbd v1.5.2PL0 Copyright (c) Steve Scherf et al.
# Submitted via: fre:ac v1.0.17
# 
DISCID=ed0f9a11
DTITLE=Stan Getz - Jazz Passion
DYEAR=2005
DGENRE=Jazz
TTITLE0=The song is you
TTITLE1=Tenderly
TTITLE2=It might as well be spring
TTITLE3=Body and soul
TTITLE4=Stella by starlight
TTITLE5=Time on my hands
TTITLE6=Autumn leaves
TTITLE7=Lullaby of birdland
TTITLE8=These foolish things
TTITLE9=How deep is the ocean
TTITLE10=Crazy rhythm
TTITLE11=The song is you
TTITLE12=Mosquito knee
TTITLE13=Pennies from heaven
TTITLE14=Move
TTITLE15=Rubberneck
TTITLE16=Yesterdays
EXTD=
EXTT0=
EXTT1=
EXTT2=
EXTT3=
EXTT4=
EXTT5=
EXTT6=
EXTT7=
EXTT8=
EXTT9=
EXTT10=
EXTT11=
EXTT12=
EXTT13=
EXTT14=
EXTT15=
EXTT16=
PLAYORDER=
